<svg width="38" height="38" viewBox="0 0 38 38" fill="none" xmlns="http://www.w3.org/2000/svg">
<path d="M2 4C2 2.89543 2.89543 2 4 2H22C23.1046 2 24 2.89543 24 4V13.3939C24 19.2515 19.2515 24 13.3939 24C7.10124 24 2 18.8988 2 12.6061V4Z" transform="translate(6)" stroke="#F2F2F2" stroke-width="4"/>
<path d="M1.5 5.50555C1.5 4.04184 3.02186 3.07487 4.34694 3.69664L8.5 5.64539V14.3681C4.52098 13.6596 1.5 10.1826 1.5 6V5.50555Z" transform="translate(0 3)" stroke="#F2F2F2" stroke-width="3"/>
<path d="M1.5 5.50555C1.5 4.04184 3.02186 3.07487 4.34694 3.69664L8.5 5.64539V14.3681C4.52098 13.6596 1.5 10.1826 1.5 6V5.50555Z" transform="translate(38 3) scale(-1 1)" stroke="#F2F2F2" stroke-width="3"/>
<path d="M5.80847 0H15.8617C15.8617 0 9.82986 4.71869 15.8617 8.84755C27.4229 13.5662 15.8617 12.9764 15.8617 12.9764H5.80847C5.80847 12.9764 -7.26059 12.9764 5.80847 8.84755C11.3377 5.89837 5.80847 0 5.80847 0Z" transform="translate(8 23)" stroke="#F2F2F2" stroke-width="3"/>
</svg>
