<svg width="36" height="36" viewBox="0 0 36 36" fill="none" xmlns="http://www.w3.org/2000/svg">
<circle cx="12" cy="12" r="9.5" transform="translate(6 6)" stroke="#F2F2F2" stroke-width="5"/>
<path d="M2.5 0C2.5 -1.38071 1.38071 -2.5 0 -2.5C-1.38071 -2.5 -2.5 -1.38071 -2.5 0H2.5ZM2.5 8V0H-2.5V8H2.5Z" transform="translate(18 3)" fill="#F2F2F2"/>
<path d="M2.5 0C2.5 -1.38071 1.38071 -2.5 0 -2.5C-1.38071 -2.5 -2.5 -1.38071 -2.5 0H2.5ZM2.5 8V0H-2.5V8H2.5Z" transform="translate(18 33) rotate(-180)" fill="#F2F2F2"/>
<path d="M2.5 0C2.5 -1.38071 1.38071 -2.5 0 -2.5C-1.38071 -2.5 -2.5 -1.38071 -2.5 0H2.5ZM2.5 8V0H-2.5V8H2.5Z" transform="translate(3 18) rotate(-90)" fill="#F2F2F2"/>
<path d="M2.5 0C2.5 -1.38071 1.38071 -2.5 0 -2.5C-1.38071 -2.5 -2.5 -1.38071 -2.5 0H2.5ZM2.5 8V0H-2.5V8H2.5Z" transform="translate(33 18) rotate(90)" fill="#F2F2F2"/>
<path d="M2.5 0C2.5 -1.38071 1.38071 -2.5 0 -2.5C-1.38071 -2.5 -2.5 -1.38071 -2.5 0H2.5ZM2.5 8V0H-2.5V8H2.5Z" transform="translate(7.17139 7.17163) rotate(-45)" fill="#F2F2F2"/>
<path d="M2.5 0C2.5 -1.38071 1.38071 -2.5 0 -2.5C-1.38071 -2.5 -2.5 -1.38071 -2.5 0H2.5ZM2.5 8V0H-2.5V8H2.5Z" transform="translate(28.7324 7.07886) rotate(43.0908)" fill="#F2F2F2"/>
<path d="M2.5 0C2.5 -1.38071 1.38071 -2.5 0 -2.5C-1.38071 -2.5 -2.5 -1.38071 -2.5 0H2.5ZM2.5 8V0H-2.5V8H2.5Z" transform="translate(7.17139 28.8284) rotate(-135)" fill="#F2F2F2"/>
<path d="M2.5 0C2.5 -1.38071 1.38071 -2.5 0 -2.5C-1.38071 -2.5 -2.5 -1.38071 -2.5 0H2.5ZM2.5 8V0H-2.5V8H2.5Z" transform="translate(28.8286 28.8284) rotate(135)" fill="#F2F2F2"/>
</svg>
